<mxfile host="app.diagrams.net" modified="2024-01-13T15:21:28.439Z" agent="Mozilla/5.0 (X11; Linux x86_64; rv:121.0) Gecko/20100101 Firefox/121.0" version="22.1.18" etag="gYE5gtbyMuv1oosgsLSK" type="github">
  <diagram name="Page-1" id="clxEMwsv4-gXJVvuC8Vo">
    <mxGraphModel>
      <root>
        <mxCell id="0" />
        <mxCell id="1" parent="0" />
      </root>
    </mxGraphModel>
  </diagram>
</mxfile>
